<svg version="1.1" id="Layer_1" xmlns="http://www.w3.org/2000/svg" xmlns:xlink="http://www.w3.org/1999/xlink" x="0px" y="0px"
	 width="100%" viewBox="0 0 144 165" enable-background="new 0 0 144 165" xml:space="preserve">
<path fill="#FF6616" opacity="1.000000" stroke="none" 
	d="
M85.000000,166.000000 
	C56.666668,166.000000 28.833334,166.000000 1.000000,166.000000 
	C1.000000,111.000000 1.000000,56.000000 1.000000,1.000000 
	C49.000000,1.000000 97.000000,1.000000 145.000000,1.000000 
	C145.000000,56.000000 145.000000,111.000000 145.000000,166.000000 
	C125.166664,166.000000 105.333336,166.000000 85.000000,166.000000 
M94.450562,139.194565 
	C92.196548,142.829987 92.602531,146.184402 95.708481,149.079895 
	C99.145737,152.284241 102.739365,150.869049 105.657722,148.534500 
	C119.135170,137.753143 127.410423,124.015648 127.947433,106.422813 
	C128.380402,92.238724 123.421959,79.927582 114.512741,68.885162 
	C106.013863,58.351311 96.760429,48.118969 94.684555,33.851887 
	C94.544380,32.888493 93.046410,32.122650 92.179932,31.264927 
	C91.448517,32.060280 90.418739,32.732853 90.032936,33.670422 
	C86.973564,41.105186 85.626480,48.579639 89.545364,56.230114 
	C91.737122,60.508858 93.914604,64.835838 95.567833,69.336044 
	C96.801018,72.692879 97.470131,76.336899 97.784645,79.906403 
	C97.889854,81.100395 96.350121,83.150406 95.146385,83.547127 
	C93.960831,83.937874 91.634209,83.159492 90.908905,82.123505 
	C89.782959,80.515259 89.057045,78.244278 89.092079,76.270775 
	C89.262115,66.694687 86.346664,58.531513 79.938705,51.236828 
	C69.471703,39.321411 59.982437,26.843138 65.775230,9.281028 
	C66.018806,8.542578 65.113327,6.813909 64.367889,6.529245 
	C63.594627,6.233959 61.843208,6.830035 61.415432,7.560732 
	C57.508415,14.234444 52.598568,20.641710 50.302788,27.864584 
	C46.653725,39.345074 49.786839,50.778103 53.862404,61.875809 
	C55.380295,66.009010 56.511692,70.437111 56.862946,74.807594 
	C57.315357,80.436737 53.927395,84.039337 49.369938,83.949623 
	C44.969547,83.862999 42.098515,80.445892 42.018707,75.035538 
	C41.947449,70.204460 42.092846,65.369095 41.967892,60.540142 
	C41.784126,53.438320 36.466618,45.893475 29.956318,43.610058 
	C28.689589,43.165764 27.120569,43.583336 25.690983,43.603367 
	C25.843002,44.958191 25.582722,46.556957 26.215885,47.627110 
	C29.595518,53.339264 30.042397,59.321186 27.697508,65.337814 
	C25.231319,71.665665 22.304501,77.817612 19.481716,84.002029 
	C15.222942,93.332558 14.039524,102.986435 15.638601,113.132530 
	C18.245937,129.675995 27.855431,141.542999 40.861916,151.004837 
	C42.662373,152.314636 46.386791,152.444031 48.546204,151.528809 
	C55.804409,148.452667 55.655422,137.007965 48.850700,131.370239 
	C46.545479,129.460358 44.306084,126.850357 43.307777,124.099060 
	C40.202461,115.540924 42.040745,107.240898 46.872524,99.880051 
	C51.221554,93.254616 58.495895,93.224091 63.664486,99.225128 
	C64.742027,100.476219 65.781792,101.816353 66.549431,103.268509 
	C70.925797,111.547401 71.666710,124.970459 64.785271,129.520386 
	C58.723484,133.528366 57.785027,139.097992 57.983307,145.500397 
	C58.171795,151.586670 62.826164,158.429489 67.862381,159.779877 
	C74.601120,161.586761 83.160164,158.735947 86.093056,153.707687 
	C89.732964,147.467270 88.652069,140.478943 83.674149,135.037247 
	C82.016136,133.224762 80.266266,130.675156 80.172508,128.396118 
	C79.782463,118.914635 79.977859,109.407600 80.045425,99.910561 
	C80.054153,98.684319 80.570724,97.461693 80.852058,96.237389 
	C81.388969,96.270340 81.925880,96.303291 82.462791,96.336235 
	C82.641396,98.020668 82.958977,99.703835 82.974358,101.389755 
	C83.038200,108.387375 82.896393,115.389580 83.126335,122.380363 
	C83.165985,123.585800 84.642242,124.743980 85.454895,125.923988 
	C86.766586,125.000244 88.530708,124.340164 89.265137,123.079987 
	C90.028290,121.770531 89.950455,119.882751 89.970840,118.244522 
	C90.043404,112.413589 89.970932,106.580940 90.025558,100.749619 
	C90.037903,99.431229 90.341194,98.115555 90.510559,96.798630 
	C90.926643,96.823608 91.342720,96.848579 91.758797,96.873558 
	C91.839005,98.608253 91.976158,100.342522 91.989204,102.077721 
	C92.036827,108.408768 91.783234,114.758881 92.238319,121.058823 
	C92.359726,122.739555 94.602226,124.267075 95.870911,125.864937 
	C96.579956,124.267166 97.844139,122.688866 97.900993,121.068222 
	C98.134499,114.411423 97.956650,107.741241 98.033745,101.077179 
	C98.052330,99.470657 98.467606,97.868729 98.700447,96.264687 
	C99.254799,96.271545 99.809143,96.278404 100.363487,96.285263 
	C100.574684,97.764465 100.949966,99.241661 100.968132,100.723236 
	C101.039635,106.554184 100.789757,112.395927 101.051666,118.215996 
	C101.392532,125.790550 101.563385,133.186401 94.450562,139.194565 
z"/>
<path fill="#FEDA0A" opacity="1.000000" stroke="none" 
	d="
M94.686920,138.901062 
	C101.563385,133.186401 101.392532,125.790550 101.051666,118.215996 
	C100.789757,112.395927 101.039635,106.554184 100.968132,100.723236 
	C100.949966,99.241661 100.574684,97.764465 100.363487,96.285263 
	C99.809143,96.278404 99.254799,96.271545 98.700447,96.264687 
	C98.467606,97.868729 98.052330,99.470657 98.033745,101.077179 
	C97.956650,107.741241 98.134499,114.411423 97.900993,121.068222 
	C97.844139,122.688866 96.579956,124.267166 95.870911,125.864937 
	C94.602226,124.267075 92.359726,122.739555 92.238319,121.058823 
	C91.783234,114.758881 92.036827,108.408768 91.989204,102.077721 
	C91.976158,100.342522 91.839005,98.608253 91.758797,96.873558 
	C91.342720,96.848579 90.926643,96.823608 90.510559,96.798630 
	C90.341194,98.115555 90.037903,99.431229 90.025558,100.749619 
	C89.970932,106.580940 90.043404,112.413589 89.970840,118.244522 
	C89.950455,119.882751 90.028290,121.770531 89.265137,123.079987 
	C88.530708,124.340164 86.766586,125.000244 85.454895,125.923996 
	C84.642242,124.743980 83.165985,123.585800 83.126335,122.380363 
	C82.896393,115.389580 83.038200,108.387375 82.974358,101.389755 
	C82.958977,99.703835 82.641396,98.020668 82.462791,96.336235 
	C81.925880,96.303291 81.388969,96.270340 80.852058,96.237389 
	C80.570724,97.461693 80.054153,98.684319 80.045425,99.910561 
	C79.977859,109.407600 79.782463,118.914635 80.172508,128.396118 
	C80.266266,130.675156 82.016136,133.224762 83.674149,135.037247 
	C88.652069,140.478943 89.732964,147.467270 86.093056,153.707687 
	C83.160164,158.735947 74.601120,161.586761 67.862381,159.779877 
	C62.826164,158.429489 58.171795,151.586670 57.983307,145.500397 
	C57.785027,139.097992 58.723484,133.528366 64.785271,129.520386 
	C71.666710,124.970459 70.925797,111.547401 66.549431,103.268509 
	C65.781792,101.816353 64.742027,100.476219 63.664486,99.225128 
	C58.495895,93.224091 51.221554,93.254616 46.872524,99.880051 
	C42.040745,107.240898 40.202461,115.540924 43.307777,124.099060 
	C44.306084,126.850357 46.545479,129.460358 48.850700,131.370239 
	C55.655422,137.007965 55.804409,148.452667 48.546204,151.528809 
	C46.386791,152.444031 42.662373,152.314636 40.861916,151.004837 
	C27.855431,141.542999 18.245937,129.675995 15.638601,113.132530 
	C14.039524,102.986435 15.222942,93.332558 19.481716,84.002029 
	C22.304501,77.817612 25.231319,71.665665 27.697508,65.337814 
	C30.042397,59.321186 29.595518,53.339264 26.215885,47.627110 
	C25.582722,46.556957 25.843002,44.958191 25.690983,43.603367 
	C27.120569,43.583336 28.689589,43.165764 29.956318,43.610058 
	C36.466618,45.893475 41.784126,53.438320 41.967892,60.540142 
	C42.092846,65.369095 41.947449,70.204460 42.018707,75.035538 
	C42.098515,80.445892 44.969547,83.862999 49.369938,83.949623 
	C53.927395,84.039337 57.315357,80.436737 56.862946,74.807594 
	C56.511692,70.437111 55.380295,66.009010 53.862404,61.875809 
	C49.786839,50.778103 46.653725,39.345074 50.302788,27.864584 
	C52.598568,20.641710 57.508415,14.234444 61.415432,7.560732 
	C61.843208,6.830035 63.594627,6.233959 64.367889,6.529245 
	C65.113327,6.813909 66.018806,8.542578 65.775230,9.281028 
	C59.982437,26.843138 69.471703,39.321411 79.938705,51.236828 
	C86.346664,58.531513 89.262115,66.694687 89.092079,76.270775 
	C89.057045,78.244278 89.782959,80.515259 90.908905,82.123505 
	C91.634209,83.159492 93.960831,83.937874 95.146385,83.547127 
	C96.350121,83.150406 97.889854,81.100395 97.784645,79.906403 
	C97.470131,76.336899 96.801018,72.692879 95.567833,69.336044 
	C93.914604,64.835838 91.737122,60.508858 89.545364,56.230114 
	C85.626480,48.579639 86.973564,41.105186 90.032936,33.670422 
	C90.418739,32.732853 91.448517,32.060280 92.179932,31.264927 
	C93.046410,32.122650 94.544380,32.888493 94.684555,33.851887 
	C96.760429,48.118969 106.013863,58.351311 114.512741,68.885162 
	C123.421959,79.927582 128.380402,92.238724 127.947433,106.422813 
	C127.410423,124.015648 119.135170,137.753143 105.657722,148.534500 
	C102.739365,150.869049 99.145737,152.284241 95.708481,149.079895 
	C92.602531,146.184402 92.196548,142.829987 94.686920,138.901062 
z"/>
</svg>