<svg version="1.1" id="Layer_1" xmlns="http://www.w3.org/2000/svg" xmlns:xlink="http://www.w3.org/1999/xlink" x="0px" y="0px"
	 width="100%" viewBox="0 0 360 360" enable-background="new 0 0 360 360" xml:space="preserve">
<path fill="#FF6616" opacity="1.000000" stroke="none" 
	d="
M205.000000,361.000000 
	C138.023087,361.000000 71.546135,360.971436 5.069413,361.085724 
	C1.798959,361.091370 0.892635,360.638947 0.896446,357.071930 
	C1.021737,239.779480 1.023986,122.486824 0.891285,5.194380 
	C0.887036,1.439571 1.845187,0.911725 5.302867,0.914754 
	C122.428764,1.017382 239.554779,1.016401 356.680695,0.918548 
	C360.093872,0.915697 361.116455,1.377619 361.112030,5.177932 
	C360.974976,122.470360 360.978851,239.763000 361.101715,357.055481 
	C361.105408,360.588776 360.253235,361.097565 356.946991,361.089172 
	C306.464905,360.961060 255.982407,361.000000 205.000000,361.000000 
z"/>
<path fill="#FEDA0A" opacity="1.000000" stroke="none" 
	d="
M225.002472,169.003723 
	C242.145416,189.845993 240.728470,220.793823 221.850235,239.601990 
	C218.812698,242.628265 216.162018,246.083328 212.085938,248.023697 
	C209.035294,249.475922 206.541031,248.908371 204.380844,246.734131 
	C202.116333,244.454865 201.131302,241.687515 202.820847,238.580246 
	C203.689423,236.982834 204.381760,235.014648 205.741745,234.009903 
	C210.169449,230.738770 210.154663,226.268677 210.045410,221.497803 
	C209.873825,214.005219 210.076553,206.504410 209.934921,199.010574 
	C209.905380,197.448456 211.002609,194.509338 208.377808,194.640900 
	C206.116989,194.754242 207.081497,197.637344 207.051270,199.287201 
	C206.929230,205.948532 207.063293,212.614426 206.953735,219.276184 
	C206.924545,221.050598 207.858292,223.671280 204.666229,223.858932 
	C201.510193,224.044464 201.284439,221.252930 201.198318,219.361572 
	C200.903091,212.877625 201.066635,206.373886 200.976135,199.878769 
	C200.952652,198.193298 201.417816,196.349640 199.760361,194.073029 
	C198.478256,198.498993 199.140366,202.260895 199.025101,205.942001 
	C198.884369,210.435364 199.140991,214.950562 198.802963,219.424362 
	C198.639145,221.592499 198.176880,224.167358 194.762894,223.965088 
	C191.237686,223.756241 192.061798,221.168793 192.036697,219.195312 
	C191.945663,212.033112 192.020996,204.868942 191.960480,197.706131 
	C191.950180,196.486023 192.392426,194.566254 190.551712,194.506012 
	C188.639557,194.443405 189.048676,196.383194 189.042740,197.591492 
	C188.994370,207.419891 189.088745,217.249451 188.976044,227.076797 
	C188.941833,230.061279 191.038727,231.470444 192.735489,233.214417 
	C197.727768,238.345566 198.669312,245.772812 195.027390,251.863174 
	C192.077026,256.797028 183.223068,259.636719 176.702332,257.740479 
	C171.648666,256.270874 167.159225,249.483063 166.978119,243.352768 
	C166.788223,236.925018 167.844315,231.416000 173.886688,227.416504 
	C180.690018,222.913376 179.911026,209.322006 175.478363,201.151794 
	C174.694717,199.707413 173.657364,198.368393 172.570969,197.126083 
	C167.451569,191.271957 160.558258,191.212326 156.108139,197.601578 
	C150.824783,205.187180 149.256668,213.727219 152.426697,222.686111 
	C153.418594,225.489288 155.156479,227.718674 157.784180,229.604523 
	C165.151031,234.891663 164.528732,246.475479 157.090698,250.001953 
	C154.282181,251.333527 152.007538,250.872604 149.702713,249.131332 
	C136.845856,239.418198 127.223999,227.544067 124.564606,211.118118 
	C122.932625,201.038101 124.036804,191.247757 128.531250,182.008713 
	C131.436142,176.037292 134.399292,170.108200 136.599518,163.823669 
	C138.802780,157.530457 138.772446,151.448990 135.122574,145.675400 
	C134.269333,144.325699 133.440460,142.901871 134.748840,141.655334 
	C135.914993,140.544281 137.531693,140.987167 138.986908,141.539215 
	C145.442093,143.988159 150.784164,151.440323 150.967636,158.541107 
	C151.092392,163.369049 150.947281,168.203400 151.018356,173.033478 
	C151.097992,178.443741 153.965149,181.859528 158.364594,181.949768 
	C162.921387,182.043243 165.759583,178.466583 166.040237,172.807800 
	C166.271912,168.136551 164.572845,164.027069 162.944214,159.858322 
	C158.645264,148.854401 156.327652,137.618454 159.028900,125.820641 
	C160.820251,117.996895 165.517273,111.757126 170.249725,105.548500 
	C171.143600,104.375793 172.232025,103.670830 173.659927,104.559914 
	C175.030685,105.413414 174.810349,106.639717 174.511261,108.071518 
	C173.566376,112.595009 172.485718,117.058632 173.357269,121.831039 
	C174.962601,130.621368 179.277893,137.898911 185.008087,144.509048 
	C190.777542,151.164490 196.596848,157.811295 197.532547,167.121902 
	C197.830795,170.089615 197.892532,173.082855 198.010483,176.066452 
	C198.140488,179.354736 199.790237,181.749847 203.019424,181.768066 
	C206.896988,181.789993 207.243805,178.579254 206.930542,175.605560 
	C206.601044,172.477875 205.739517,169.475769 204.313187,166.599197 
	C202.029572,161.993683 200.027542,157.249451 197.849503,152.590485 
	C194.352142,145.109406 196.652847,138.003952 199.196701,130.914383 
	C199.553650,129.919617 200.314011,129.209808 201.444901,129.255508 
	C202.898376,129.314240 203.501938,130.592941 203.647614,131.625671 
	C205.789963,146.815002 216.142410,157.272995 225.002472,169.003723 
z"/>
</svg>