<svg version="1.1" id="Layer_1" xmlns="http://www.w3.org/2000/svg" xmlns:xlink="http://www.w3.org/1999/xlink" x="0px" y="0px"
	 width="100%" viewBox="0 0 144 165" enable-background="new 0 0 144 165" xml:space="preserve">
<path fill="#000000" opacity="1.000000" stroke="none" 
	d="
M86.000000,166.000000 
	C57.333332,166.000000 29.166666,166.000000 1.000000,166.000000 
	C1.000000,111.000000 1.000000,56.000000 1.000000,1.000000 
	C49.000000,1.000000 97.000000,1.000000 145.000000,1.000000 
	C145.000000,56.000000 145.000000,111.000000 145.000000,166.000000 
	C125.500000,166.000000 106.000000,166.000000 86.000000,166.000000 
M57.489956,16.030788 
	C49.309723,27.715860 47.900421,40.355003 51.891697,53.885933 
	C53.951206,60.867928 55.628841,67.963058 57.452747,75.013870 
	C58.497337,79.052025 56.173576,83.166466 52.227261,84.355553 
	C48.032314,85.619560 45.056915,84.214424 44.141083,79.323189 
	C43.181137,74.196373 43.617229,68.822510 42.907780,63.629768 
	C42.367100,59.672325 41.712101,55.423271 39.807476,52.034981 
	C37.265759,47.513317 33.314259,43.955544 26.617090,44.108097 
	C27.158257,46.796238 27.191801,49.170959 28.117493,51.122501 
	C30.361984,55.854317 30.733587,60.582287 28.802853,65.365303 
	C25.944866,72.445396 22.973684,79.484604 19.854107,86.453224 
	C14.335137,98.781677 14.823238,111.217216 18.966911,123.723923 
	C22.791245,135.266754 31.072308,143.296417 40.140484,150.847198 
	C43.517365,153.658997 47.160900,154.058304 50.022282,152.093842 
	C52.423435,150.445374 54.704151,146.698593 54.670555,143.909378 
	C54.627785,140.358734 53.154453,135.797806 50.634789,133.481384 
	C39.377747,123.132339 42.038563,110.715836 48.535706,100.069809 
	C51.115906,95.841965 55.703163,94.968063 60.243900,97.056343 
	C65.881836,99.649223 67.870186,104.917084 69.551239,110.160217 
	C71.792427,117.150383 72.188805,124.905594 66.289330,129.737671 
	C60.550850,134.437866 58.706863,139.550232 58.974323,146.318024 
	C59.204987,152.154800 63.728760,159.289703 68.396202,160.811691 
	C74.165298,162.692886 84.029984,159.804565 86.847527,155.409241 
	C90.347145,149.949829 89.544434,142.558884 85.681091,136.992020 
	C83.549042,133.919861 81.501129,130.162598 81.208099,126.568031 
	C80.546936,118.457565 80.947884,110.255592 81.047272,102.092438 
	C81.065872,100.564995 81.692886,99.044968 82.039131,97.521515 
	C83.400330,99.243980 83.929367,100.950592 83.958618,102.665733 
	C84.063736,108.828873 83.791023,115.006340 84.127708,121.152832 
	C84.228500,122.992935 86.037918,126.344452 86.747139,126.262329 
	C89.498436,125.943741 91.182373,124.054146 91.061539,120.745392 
	C90.842781,114.755081 90.951881,108.750374 91.034782,102.753212 
	C91.054916,101.296288 91.505447,99.845329 91.758080,98.391624 
	C94.896675,107.762817 89.821205,118.091698 96.695587,127.990082 
	C101.634277,117.579720 96.614532,107.112869 100.825607,97.853691 
	C101.529373,99.565392 101.943481,101.284309 101.967583,103.008682 
	C102.051392,109.005821 101.904655,115.006752 102.024757,121.002655 
	C102.166832,128.095032 101.115250,134.552704 95.741226,139.980881 
	C92.653084,143.100143 93.496971,146.897049 96.567207,150.072830 
	C99.414352,153.017838 102.338509,152.843231 105.229881,150.301346 
	C108.878609,147.093643 112.574356,143.915909 115.978355,140.458038 
	C123.976105,132.333710 127.843498,122.176834 128.918121,111.088264 
	C130.562302,94.122414 124.166275,79.769165 113.498535,66.963303 
	C105.664162,57.558716 97.812096,48.139950 95.898682,35.381508 
	C95.722183,34.204643 94.440498,33.193527 92.981674,31.128063 
	C91.355904,34.736233 89.985985,37.282574 89.036682,39.977097 
	C86.314949,47.702488 89.139244,54.598869 92.131927,61.636429 
	C94.587112,67.410019 96.343918,73.504982 98.016083,79.566254 
	C98.344566,80.756966 96.870071,82.445084 96.227119,83.903793 
	C94.565262,83.116531 92.195435,82.751816 91.412468,81.439987 
	C90.320213,79.609955 90.098442,77.078026 90.056335,74.836090 
	C89.899437,66.483269 86.987785,59.399296 81.615685,52.971989 
	C77.028389,47.483639 72.539665,41.749058 69.075676,35.528481 
	C65.037674,28.277107 63.630489,20.270395 66.403183,11.936986 
	C66.779564,10.805754 65.655815,9.175404 65.226669,7.776160 
	C64.046173,8.426845 62.565121,8.822925 61.751003,9.783974 
	C60.290607,11.507947 59.231129,13.571546 57.489956,16.030788 
z"/>
<path fill="#FF6616" opacity="1.000000" stroke="none" 
	d="
M57.747032,15.762000 
	C59.231129,13.571546 60.290607,11.507947 61.751003,9.783974 
	C62.565121,8.822925 64.046173,8.426845 65.226669,7.776159 
	C65.655815,9.175404 66.779564,10.805754 66.403183,11.936986 
	C63.630489,20.270395 65.037674,28.277107 69.075676,35.528481 
	C72.539665,41.749058 77.028389,47.483639 81.615685,52.971989 
	C86.987785,59.399296 89.899437,66.483269 90.056335,74.836090 
	C90.098442,77.078026 90.320213,79.609955 91.412468,81.439987 
	C92.195435,82.751816 94.565262,83.116531 96.227119,83.903793 
	C96.870071,82.445084 98.344566,80.756966 98.016083,79.566254 
	C96.343918,73.504982 94.587112,67.410019 92.131927,61.636429 
	C89.139244,54.598869 86.314949,47.702488 89.036682,39.977097 
	C89.985985,37.282574 91.355904,34.736233 92.981674,31.128063 
	C94.440498,33.193527 95.722183,34.204643 95.898682,35.381508 
	C97.812096,48.139950 105.664162,57.558716 113.498535,66.963303 
	C124.166275,79.769165 130.562302,94.122414 128.918121,111.088264 
	C127.843498,122.176834 123.976105,132.333710 115.978355,140.458038 
	C112.574356,143.915909 108.878609,147.093643 105.229881,150.301346 
	C102.338509,152.843231 99.414352,153.017838 96.567207,150.072830 
	C93.496971,146.897049 92.653084,143.100143 95.741226,139.980881 
	C101.115250,134.552704 102.166832,128.095032 102.024757,121.002655 
	C101.904655,115.006752 102.051392,109.005821 101.967583,103.008682 
	C101.943481,101.284309 101.529373,99.565392 100.825607,97.853691 
	C96.614532,107.112869 101.634277,117.579720 96.695587,127.990082 
	C89.821205,118.091698 94.896675,107.762817 91.758080,98.391624 
	C91.505447,99.845329 91.054916,101.296288 91.034782,102.753212 
	C90.951881,108.750374 90.842781,114.755081 91.061539,120.745392 
	C91.182373,124.054146 89.498436,125.943741 86.747139,126.262329 
	C86.037918,126.344452 84.228500,122.992935 84.127708,121.152832 
	C83.791023,115.006340 84.063736,108.828873 83.958618,102.665733 
	C83.929367,100.950592 83.400330,99.243980 82.039131,97.521515 
	C81.692886,99.044968 81.065872,100.564995 81.047272,102.092438 
	C80.947884,110.255592 80.546936,118.457565 81.208099,126.568031 
	C81.501129,130.162598 83.549042,133.919861 85.681091,136.992020 
	C89.544434,142.558884 90.347145,149.949829 86.847527,155.409241 
	C84.029984,159.804565 74.165298,162.692886 68.396202,160.811691 
	C63.728760,159.289703 59.204987,152.154800 58.974323,146.318024 
	C58.706863,139.550232 60.550850,134.437866 66.289330,129.737671 
	C72.188805,124.905594 71.792427,117.150383 69.551239,110.160217 
	C67.870186,104.917084 65.881836,99.649223 60.243900,97.056343 
	C55.703163,94.968063 51.115906,95.841965 48.535706,100.069809 
	C42.038563,110.715836 39.377747,123.132339 50.634789,133.481384 
	C53.154453,135.797806 54.627785,140.358734 54.670555,143.909378 
	C54.704151,146.698593 52.423435,150.445374 50.022282,152.093842 
	C47.160900,154.058304 43.517365,153.658997 40.140484,150.847198 
	C31.072308,143.296417 22.791245,135.266754 18.966911,123.723923 
	C14.823238,111.217216 14.335137,98.781677 19.854107,86.453224 
	C22.973684,79.484604 25.944866,72.445396 28.802853,65.365303 
	C30.733587,60.582287 30.361984,55.854317 28.117493,51.122501 
	C27.191801,49.170959 27.158257,46.796238 26.617090,44.108097 
	C33.314259,43.955544 37.265759,47.513317 39.807476,52.034981 
	C41.712101,55.423271 42.367100,59.672325 42.907780,63.629768 
	C43.617229,68.822510 43.181137,74.196373 44.141083,79.323189 
	C45.056915,84.214424 48.032314,85.619560 52.227261,84.355553 
	C56.173576,83.166466 58.497337,79.052025 57.452747,75.013870 
	C55.628841,67.963058 53.951206,60.867928 51.891697,53.885933 
	C47.900421,40.355003 49.309723,27.715860 57.747032,15.762000 
z"/>
</svg>